# xmcd
#
# Track frame offsets: 
#        150
#        14494
#        28962
#        40723
#        55553
#        68882
#        82392
#        95614
#        108246
#        122170
#        134837
#        150142
#        163520
#        177004
#        190119
#        203621
#        215864
#        230059
#        244010
#        256553
#        270997
#        284874
#        299039
#        312800
#        326182
#        341364
#
# Disc length: 4739 seconds
#
# Revision: 1
# Processed by: cddbd v1.5.2PL0 Copyright (c) Steve Scherf et al.
# Submitted via: ExactAudioCopyFreeDBPlugin 1.0
#
DISCID=8412811a
DTITLE=Various Artist - Really The Blues A Blues History - Vol 1 (189
DTITLE=3-1929) [Cd7]
DYEAR=2010
DGENRE=Blues
TTITLE0=Cannon's Jug Stompers 1928 - Viola Lee Blues
TTITLE1=Frank Stokes 1928 - Take Me Back
TTITLE2=Gershwin 1926 - Three Preludes
TTITLE3=Biddleville Quintet 1928 - I Heard The Voice Of Jesus Say
TTITLE4=Lonnie Johnson 1928 - Away Donw In Alley Blues
TTITLE5=HI Bandy 1928 - Going Across The Sea
TTITLE6=Barbecue Bob 1928 - Chocolate To The Bone
TTITLE7=Pintop Smith 1928 - Pinetop Blues
TTITLE8=Julius Daniels 1927 - 99 Years Blues
TTITLE9=George "Bullet" Williams 1927 - Touch Me Light Mama
TTITLE10=Rube Lacy 1928 - Mississippi Jailhouse Groan
TTITLE11=Rambling Thomas 1928 - Sawmill Moan
TTITLE12=Clarence Green 1928 - Johnson City Blues
TTITLE13=Lottie Kimbrough 1928 - Wayward Girl Blues
TTITLE14=Anette Hanshaw 1928 - I Must Have That Man
TTITLE15=Bennie Moten 1928 - Slow Motion
TTITLE16=Moses Mason 1928 - Molly Man
TTITLE17=Phipps 1928 - If The Light Has Gone Out In Your Soul
TTITLE18=Bebe Creole Mc Gee 1928 - Mon Cherie
TTITLE19=King Oliver 1928 - Four Or Five Times
TTITLE20=Mississippi John Hurt 1928 - Avalon Blues
TTITLE21=Emmet Miller 1928 - I Ain't Got Nobody
TTITLE22=Porkshop 1928 - G Burns Is Gonna Rise Again
TTITLE23=Helen Morgan 1927 - Can't Help Lovin That Man
TTITLE24=Johnson Boys 1928 - Violin Blues
TTITLE25=Bo Chatman 1928 - Good Old Turnip Green
EXTD=
EXTT0=
EXTT1=
EXTT2=
EXTT3=
EXTT4=
EXTT5=
EXTT6=
EXTT7=
EXTT8=
EXTT9=
EXTT10=
EXTT11=
EXTT12=
EXTT13=
EXTT14=
EXTT15=
EXTT16=
EXTT17=
EXTT18=
EXTT19=
EXTT20=
EXTT21=
EXTT22=
EXTT23=
EXTT24=
EXTT25=
PLAYORDER=
